<?xml version="1.0" ?><svg xmlns="http://www.w3.org/2000/svg" xmlns:xlink="http://www.w3.org/1999/xlink" width="512" height="512"><path transform="scale(0.8 0.8)" d="M325.6 333.023C319.129 333.119 312.696 333.134 306.25 332.467C234.703 325.064 181.876 258.288 188.894 187.406C195.401 121.68 250.473 68.7133 316.737 67.7238L317.258 67.6095C352.061 65.8558 386.195 80.338 411.711 103.482C465.318 152.104 466.158 238.008 418.148 290.685C394.412 316.728 360.592 331.393 325.6 333.023Z"/><path transform="scale(0.8 0.8)" d="M369.916 533.628L121.433 533.606C110.123 533.595 100.061 534.113 99.9798 519.885C99.4317 424.355 177.91 348.54 272.164 348.244L340.045 348.242C354.605 348.245 369.514 347.598 384.029 348.683C463.796 354.644 526.647 415.914 539.638 493.628C541.041 502.02 547.007 532.282 532.396 533.335L531.893 533.36C525.221 533.916 518.365 533.632 511.664 533.632L369.916 533.628Z"/></svg>